<svg xmlns="http://www.w3.org/2000/svg" version="1.1" xmlns:xlink="http://www.w3.org/1999/xlink" xmlns:svgjs="http://svgjs.dev/svgjs" viewBox="0 0 800 800" opacity="0.24"><defs><linearGradient x1="50%" y1="0%" x2="50%" y2="100%" id="uundulate-grad"><stop stop-color="#c5c9aa" stop-opacity="1" offset="45%"></stop><stop stop-color="#D4922E" stop-opacity="1" offset="100%"></stop></linearGradient></defs><g stroke-width="2" stroke="url(#uundulate-grad)" fill="none"><path d="M618.8892057322431 272.9353979308129C658.3332258891711 363.4505595828539 735.1497564335374 561.1401514857462 698.2312218501277 614.272130618244C661.3126872667178 667.4041097507416 551.0157209794995 538.4268155940015 441.680239731877 527.9688977668017C332.3447584842545 517.5109799396018 242.75423079581128 615.0795468027652 173.42091186153993 564.0741250476852C104.08759292726853 513.0687032926052 68.759696528419 359.29402980117993 108.8803088473752 283.14287334241686C149.00092116633147 206.9917168836538 282.66243094055085 220.07847376520021 365.99985099252956 198.54857404562318C449.33727104450827 177.01867432604615 456.2146428594323 164.30209971236536 508.8999250968725 179.79935468844667C561.5852073343128 195.29660966452803 579.445185575315 182.42023627877182 618.8892057322431 272.9353979308129C658.3332258891711 363.4505595828539 735.1497564335374 561.1401514857462 698.2312218501277 614.272130618244 "></path><path d="M608.9396977679402 278.71106859704366C646.590807917735 365.11190471944656 719.9156779828119 553.8156060812983 684.675258607739 604.5324952532279C649.434839232666 655.2493844251576 544.1513714130485 532.1346945482692 439.78568476759074 522.1521366223058C335.4199981221328 512.1695786963421 249.9017671468007 605.3032107020892 183.71996270954162 556.6162172086038C117.5381582722826 507.92922371511827 83.81607534610805 361.1443081096668 122.11302346874811 288.45456785357476C160.4099715913881 215.76482759748274 287.99595819405204 228.25673189350437 367.5453136982136 207.7054639793626C447.09466920237514 187.1541960652209 453.6594332075299 175.0156475703438 503.94992988872275 189.80848186569415C554.2404265699158 204.6013161610445 571.2885876181451 192.31023247464083 608.9396977679402 278.71106859704366C646.590807917735 365.11190471944656 719.9156779828119 553.8156060812983 684.675258607739 604.5324952532279 "></path><path d="M598.9901898036371 284.4867087456963C634.848389946299 366.7732193384609 704.6815995320865 546.4910301592722 671.1192953653504 594.7928293706337C637.5569911986142 643.0946285819953 537.2870218465976 525.8425429849588 437.89112980330435 516.3353449602316C338.49523776001115 506.8281469355045 257.0493034977901 595.5268440838349 194.01901355754342 549.158278851944C130.98872361729667 502.7897136200529 98.8724541637971 362.9945559005755 135.34573809012096 293.76623184715453C171.81902201644482 224.53790779373355 293.3294854475533 236.43495950423033 369.0907764038976 216.86232339552396C444.852067360242 197.28968728681753 451.1042235556273 185.7291649107441 498.999934680573 199.81757852536344C546.8956458055187 213.90599213998286 563.1319896609753 202.20019815293176 598.9901898036371 284.4867087456963C634.848389946299 366.7732193384609 704.6815995320865 546.4910301592722 671.1192953653504 594.7928293706337 "></path><path d="M589.0406818393342 290.26237941192716C623.105971974863 368.43456447505355 689.4475210813611 539.1664847548242 657.5633321229618 585.0531940056177C625.6791431645624 630.9399032564111 530.4226722801466 519.5504219392266 435.9965748390181 510.5185838157357C341.5704773978896 501.4867456922449 264.1968398487795 585.7505079831589 204.3180644055451 541.7003710128624C144.43928896231074 497.650234042566 113.92883298148615 364.84483420906236 148.5784527114938 299.0779263583124C183.22807244150147 233.3110185075625 298.6630127010545 244.61321763253443 370.63623910958165 226.01921332926338C442.6094655181088 207.42520902599227 448.5490139037249 196.44271276872252 494.04993947242326 209.82670570261092C539.5508650411217 223.21069863649933 554.9753917038054 212.09019434880082 589.0406818393342 290.26237941192716C623.105971974863 368.43456447505355 689.4475210813611 539.1664847548242 657.5633321229618 585.0531940056177 "></path><path d="M579.0911738750312 296.03803481936893C611.3635540034269 370.09589435285704 674.2134426306357 531.8419240915871 644.007368880573 575.3135433818125C613.8012951305107 618.7851626720379 523.5583227136956 513.2582856347051 434.1020198747317 504.70180741245065C344.6457170357679 496.1453291901962 271.3443761997689 575.9741566236936 214.61711525354684 534.2424479149918C157.8898543073248 492.5107392062898 128.9852117991752 366.69509725876014 161.81116733286666 304.38960561068126C194.63712286655812 242.08411396260237 303.9965399545558 252.79146050204946 372.1817018152657 235.17608800421374C440.36686367597554 217.56071550637796 445.99380425182244 207.15624536791182 489.0999442642735 219.83581762106928C532.2060842767246 232.51538987422674 546.8187937466357 221.98017528588076 579.0911738750312 296.03803481936893C611.3635540034269 370.09589435285704 674.2134426306357 531.8419240915871 644.007368880573 575.3135433818125 "></path><path d="M569.1416659107283 301.8137054855997C599.6211360319909 371.7572394894496 658.9793641799102 524.5173786871392 630.4514056381845 565.5739080167965C601.9234470964589 606.6304373464538 516.6939731472446 506.9661645889728 432.2074649104454 498.88504626795475C347.72095667364624 490.8039279469366 278.4919125507583 566.1978205230175 224.91616610154858 526.7845400759102C171.34041965233888 487.3712596288028 144.04159061686426 368.545375567247 175.0438819542395 309.70130012183915C206.04617329161482 250.85722467643131 309.330067208057 260.96971863035355 373.7271645209497 244.33297793795316C438.1242618338424 227.6962372455527 443.43859459991995 217.86979322589025 484.1499490561238 229.84494479831676C524.8613035123276 241.82009637074322 538.6621957894658 231.87017148174982 569.1416659107283 301.8137054855997C599.6211360319909 371.7572394894496 658.9793641799102 524.5173786871392 630.4514056381845 565.5739080167965 "></path><path d="M559.1921579464254 307.58937615183055C587.8787180605548 373.41858462604216 643.7452857291848 517.1928332826913 616.895442395796 555.8342726517805C590.0455990624071 594.4757120208697 509.8296235807936 500.6740435432405 430.31290994615915 493.06828512345874C350.79619631152457 485.462526703677 285.6394489017477 556.4214844223415 235.21521694955032 519.3266322368287C184.79098499735295 482.2317800513158 159.0979694345533 370.3956538757339 188.27659657561236 315.0129946329971C217.45522371667147 259.63033539026026 314.66359446155826 269.1479767586577 375.27262722663374 253.48986787169258C435.88165999170917 237.83175898472746 440.88338494801746 228.58334108386867 479.19995384797403 239.85407197556418C517.5165227479306 251.12480286725975 530.505597832296 241.76016767761882 559.1921579464254 307.58937615183055C587.8787180605548 373.41858462604216 643.7452857291848 517.1928332826913 616.895442395796 555.8342726517805 "></path><path d="M549.2426499821224 313.36504681806133C576.1363000891188 375.0799297626348 628.5112072784593 509.8682878782432 603.3394791534073 546.0946372867643C578.1677510283553 582.3209866952855 502.96527401434275 494.3819224975082 428.4183549818729 487.25152397896284C353.8714359494029 480.1211254604174 292.7869852527371 546.6451483216654 245.51426779755207 511.868724397747C198.24155034236702 477.0923004738288 174.15434825224236 372.24593218422075 201.50931119698527 320.32468914415495C228.86427414172812 268.4034461040892 319.9971217150595 277.3262348869618 376.8180899323178 262.646757805432C433.63905814957593 247.9672807239022 438.328175296115 239.2968889418471 474.2499586398243 249.86319915281166C510.1717419835336 260.4295093637762 522.3489998751261 251.65016387348788 549.2426499821224 313.36504681806133C576.1363000891188 375.0799297626348 628.5112072784593 509.8682878782432 603.3394791534073 546.0946372867643 "></path><path d="M539.2931420178195 319.14071748429217C564.3938821176828 376.7412748992274 613.277128827734 502.5437424737952 589.7835159110188 536.3550019217483C566.2899029943035 570.1662613697014 496.10092444789166 488.0898014517759 426.5238000175865 481.43476283446694C356.9466755872813 474.7797242171579 299.93452160372647 536.8688122209892 255.8133186455538 504.4108165586655C211.6921156873811 471.9528208963418 189.2107270699314 374.09621049270754 214.74202581835812 325.6363836553129C240.27332456678482 277.1765568179182 325.33064896856075 285.5044930152659 378.3635526380018 271.8036477391714C431.3964563074428 258.10280246307696 435.7729656442125 250.01043679982553 469.29996343167454 259.87232633005914C502.8269612191366 269.7342158602927 514.1924019179562 261.54016006935694 539.2931420178195 319.14071748429217C564.3938821176828 376.7412748992274 613.277128827734 502.5437424737952 589.7835159110188 536.3550019217483 "></path><path d="M529.3436340535166 324.9163728917339C552.6514641462467 378.4026047770309 598.0430503770085 495.2191818105582 576.2275526686301 526.6153512979431C554.4120549602517 558.0115207853282 489.2365748814408 481.7976651472545 424.6292450533002 475.61798643118186C360.0219152251596 469.4383077151092 307.0820579547159 527.0924608615239 266.11236949355555 496.9528934607948C225.14268103239516 466.8133260600657 204.26710588762046 375.94647354240533 227.97474043973097 330.9480629076817C251.68237499184147 285.9496522729581 330.664176222062 293.682735884781 379.90901534368584 280.9605224141218C429.1538544653097 268.23830894346264 433.2177559923101 260.7239693990149 464.3499682235248 269.8814382485175C495.4821804547396 279.0389070980201 506.0358039607863 271.4301410064369 529.3436340535166 324.9163728917339C552.6514641462467 378.4026047770309 598.0430503770085 495.2191818105582 576.2275526686301 526.6153512979431 "></path><path d="M519.3941260892136 330.69204355796467C540.9090461748107 380.06394991362345 582.8089719262831 487.8946364061102 562.6715894262416 516.875715932927C542.5342069261999 545.856795459744 482.3722253149898 475.5055441015222 422.73469008901384 469.80122528668585C363.097154863038 464.0969064718495 314.2295943057053 517.3161247608479 276.4114203415573 489.4949856217132C238.5932463774093 461.6738464825787 219.3234847053095 377.7967518508922 241.20745506110381 336.2597574188396C263.0914254168981 294.722762986787 335.99770347556324 301.8609940130851 381.45447804936987 290.11741234786126C426.91125262317644 278.3738306826374 430.66254634040763 271.4375172569933 459.39997301537505 279.890565425765C488.1373996903425 288.3436135945366 497.87920600361645 281.32013720230594 519.3941260892136 330.69204355796467C540.9090461748107 380.06394991362345 582.8089719262831 487.8946364061102 562.6715894262416 516.875715932927 "></path><path d="M509.4446181249107 336.4676837066174C529.1666282033746 381.7252645326379 567.5748934755577 480.570060484084 549.1156261838529 507.13605005033287C530.656358892148 533.7020396165817 475.5078757485388 469.2133925382117 420.84013512472757 463.9844336246117C366.1723945009163 458.75547471101186 321.3771306566947 507.53975814259354 286.71047118955903 482.0370472650536C252.04381172242336 456.5343363875136 234.37986352299856 379.6469996418009 254.44016968247666 341.5714214124194C274.50047584195477 303.49584318303783 341.3312307290645 310.03922162381104 382.99994075505384 299.27427176402256C424.6686507810432 288.509321904234 428.10733668850526 282.1510345973936 454.4499778072253 289.8996620854343C480.7926189259455 297.6482895734749 489.72260804644657 291.2101028805968 509.4446181249107 336.4676837066174C529.1666282033746 381.7252645326379 567.5748934755577 480.570060484084 549.1156261838529 507.13605005033287 "></path><path d="M499.49506438424044 342.24335437284816C517.4241644555714 383.38660966923044 552.3407692484651 473.2455150796361 535.559617165097 497.3964146853168C518.778465081729 521.5473142909976 468.64348040572065 462.9212714924794 418.94553438407405 458.1676724801158C369.24758836242745 453.41407346775225 328.5246212313169 497.76342204191747 297.0094762611936 474.579139425972C265.49433129107024 451.39485681002645 249.43619656432043 381.49727795028775 267.6728385274823 346.8831159235773C285.9094804906443 312.2689538968668 346.6647122061985 318.21747975211514 384.5453576843707 308.431161697762C422.4260031625429 298.64484364340876 425.5520812602355 292.86458245537204 449.4999368227084 299.90878926268175C473.4477923851812 306.9529960699914 481.5659643129095 301.1000990764659 499.49506438424044 342.24335437284816C517.4241644555714 383.38660966923044 552.3407692484651 473.2455150796361 535.559617165097 497.3964146853168 "></path><path d="M489.5455564199375 348.019025039079C505.6817464841354 385.04795480582305 537.1066907977397 465.9209696751881 522.0036539227084 487.65677932030076C506.9006170476772 509.39258896541355 461.77913083926967 456.6291504467471 417.0509794197877 452.3509113356199C372.32282800030583 448.07267222449263 335.67215758230634 487.9870859412413 307.3085271091953 467.1212315868904C278.9448966360843 446.25537723253944 264.4925753820095 383.3475562587746 280.90555314885523 352.1948104347352C297.31853091570093 321.0420646106957 351.9982394596998 326.3957378804193 386.0908203900547 317.5880516315014C420.18340132040964 308.7803653825835 422.9968716083331 303.57813031335047 444.54994161455863 309.9179164399292C466.1030116207842 316.25770256650793 473.40936635573973 310.99009527233494 489.5455564199375 348.019025039079C505.6817464841354 385.04795480582305 537.1066907977397 465.9209696751881 522.0036539227084 487.65677932030076 "></path><path d="M479.59604845563456 353.7946804465207C493.93932851269926 386.70928468362655 521.8726123470143 458.5964090119511 508.44769068031985 477.91712869649564C495.0227690136254 497.2378483810403 454.9147812728187 450.3370141422257 415.15642445550145 446.53413493233484C375.39806763818416 442.73125572244396 342.81969393329575 478.21073458177625 317.60757795719707 459.66330848901976C292.3954619810984 441.1158823962634 279.5489541996985 385.1978193084724 294.1382677702281 357.506489687104C308.7275813407576 329.8151600657356 357.331766713201 334.5739807499343 387.63628309573875 326.74492630645176C417.94079947827646 318.9158718629692 420.4416619564306 314.29166291253983 439.5999464064089 319.9270283583876C458.7582308563872 325.56239380423534 465.25276839856986 320.8800762094149 479.59604845563456 353.7946804465207C493.93932851269926 386.70928468362655 521.8726123470143 458.5964090119511 508.44769068031985 477.91712869649564 "></path><path d="M469.64657100890975 359.57035111275155C482.1969410588414 388.37062982021916 506.638564413867 451.27186360750306 494.8917579555093 468.17749333147964C483.14495149715174 485.0831230554561 448.05046222394583 444.0448930964934 413.26190000879325 440.71737378783894C378.47333779364067 437.3898544791844 349.96726080186323 468.43439848110006 327.90665932277693 452.2054006499382C305.8460578436906 435.97640281877636 294.6053635349657 387.04809761695924 307.37101290917906 362.8181841982619C320.1366622833924 338.58827077956454 362.6653244842804 342.7522388782384 389.1817763190009 335.9018162401912C415.6982281537214 329.05139360214395 417.88648282210625 325.00521077051826 434.64998171583727 329.936155535635C451.4134806095683 334.8671003007518 457.0962009589781 330.77007240528394 469.64657100890975 359.57035111275155C482.1969410588414 388.37062982021916 506.638564413867 451.27186360750306 494.8917579555093 468.17749333147964 "></path><path d="M459.6970630446068 365.34602177898233C470.45452308740533 390.0319749568117 491.4044859631415 443.9473182030551 481.3357947131208 458.4378579664635C471.26710346309994 472.928397729872 441.1861126574949 437.7527720507611 411.3673450445069 434.9006126433429C381.548577431519 432.04845323592474 357.11479715285265 458.6580623804239 338.2057101707786 444.7474928108566C319.29662318870464 430.83692324128936 309.66174235265476 388.8983759254461 320.6037275305519 368.1298787094198C331.54571270844906 347.3613814933935 367.9988517377816 350.9304970065425 390.72723902468493 345.0587061739306C413.4556263115882 339.1869153413187 415.3312731702038 335.71875862849663 429.6999865076875 339.9452827128825C444.06869984517124 344.1718067972683 448.9396030018082 340.66006860115294 459.6970630446068 365.34602177898233C470.45452308740533 390.0319749568117 491.4044859631415 443.9473182030551 481.3357947131208 458.4378579664635 "></path><path d="M449.74753982151475 371.1216771864241C458.7120898571802 391.6933048346152 476.1703922536271 436.62275753981805 467.77981621194306 448.6982073426584C459.38924017025903 460.7736571454988 434.32174783225486 431.4606357462397 409.4727748214316 429.0838362400579C384.62380181060826 426.7070367338761 364.262318245053 448.88171102095873 348.5047457599913 437.289569712986C332.74717327492965 425.6974284050132 324.71810591155474 390.7486389751439 333.8364268931357 373.44155796178865C342.95474787471665 356.1344769484334 373.3323637324938 359.1087398760576 392.2726864715799 354.21558084888096C411.213009210666 349.3224218217044 412.7760482595123 346.432291227686 424.7499760407487 349.95439463134085C436.7239038219851 353.4764980349957 440.7829897858493 350.55004953823294 449.74753982151475 371.1216771864241C458.7120898571802 391.6933048346152 476.1703922536271 436.62275753981805 467.77981621194306 448.6982073426584 "></path><path d="M439.7980318572118 376.8973478526549C446.96967188574416 393.35464997120783 460.9363138029017 429.2982121353701 454.22385296955446 438.95857197764235C447.51139213620723 448.6189318199147 427.4573982658039 425.1685147005074 407.57821985714526 423.26707509556195C387.6990414484866 421.3656354906165 371.4098545960424 439.10537492028266 358.80379660799304 429.8316618739044C346.1977386199437 420.5579488275262 339.7744847292438 392.5989172836307 347.06914151450854 378.75325247294654C354.36379829977335 364.90758766226236 378.665890985995 367.2869980043617 393.8181491772639 363.37247078262044C408.97040736853273 359.45794356087913 410.22083860760983 357.1458390856644 419.799980832599 359.9635218085883C429.3791230575881 362.7812045315122 432.62639182867946 360.440045734102 439.7980318572118 376.8973478526549C446.96967188574416 393.35464997120783 460.9363138029017 429.2982121353701 454.22385296955446 438.95857197764235 "></path><path d="M429.8485238929089 382.6730185188857C435.2272539143081 395.0159951078004 445.7022353521762 421.97366673092205 440.66788972716586 429.2189366126263C435.63354410215544 436.46420649433054 420.59304869935295 418.8763936547751 405.6836648928589 417.450313951066C390.77428108636497 416.0242342473569 378.5573909470318 429.32903881960647 369.1028474559948 422.37375403482287C359.6483039649578 415.4184692500392 354.83086354693285 394.4491955921176 360.30185613588145 384.06494698410444C365.77284872483 373.6806983760913 383.99941823949626 375.4652561326658 395.3636118829479 372.52936071635986C406.7278055263996 369.5934653000539 407.6656289557074 367.85938694364285 414.84998562444923 369.97264898583575C422.0343422931911 372.0859110280287 424.4697938715096 370.330041929971 429.8485238929089 382.6730185188857C435.2272539143081 395.0159951078004 445.7022353521762 421.97366673092205 440.66788972716586 429.2189366126263 "></path><path d="M419.8990159286059 388.4486586675384C423.4848359428721 396.6773097268148 430.4681569014508 414.64909080889595 427.1119264847772 419.4792707300321C423.7556960681036 424.3094506511683 413.72869913290197 412.58424209146466 403.7891099285726 411.6335222889919C393.8495207242433 410.6828024865192 385.7049272980212 419.55267220135227 379.4018983039965 414.91581567816314C373.09886930997186 410.2789591549741 369.8872423646219 396.2994433830263 373.5345707572543 389.3766109776842C377.18189914988665 382.4537785723421 389.3329454929975 383.64348374339176 396.90907458863194 381.68622013252116C404.48520368426637 379.7289565216505 405.1104193038049 378.57290428404315 409.8999904162995 379.9817456455051C414.68956152879406 381.39058700696705 416.3131959143397 380.22000760826194 419.8990159286059 388.4486586675384C423.4848359428721 396.6773097268148 430.4681569014508 414.64909080889595 427.1119264847772 419.4792707300321 "></path><path d="M409.94950796430294 394.2243293337692C411.74241797143605 398.33865486340744 415.2340784507254 407.324545404448 413.5559632423886 409.73963536501606C411.8778480340518 412.15472532558414 406.864349566451 406.2921210457323 401.8945549642863 405.81676114449596C396.9247603621217 405.3414012432596 392.8524636490106 409.77633610067613 389.70094915199826 407.4579078390816C386.54943465498593 405.139479577487 384.94362118231095 398.14972169151315 386.76728537862715 394.6883054888421C388.59094957494335 391.22688928617106 394.66647274649875 391.8217418716959 398.45453729431597 390.8431100662606C402.2426018421332 389.86447826082525 402.5552096519025 389.2864521420216 404.94999520814974 389.9908728227525C407.344780764397 390.6952935034835 408.1565979571699 390.11000380413094 409.94950796430294 394.2243293337692C411.74241797143605 398.33865486340744 415.2340784507254 407.324545404448 413.5559632423886 409.73963536501606 "></path></g></svg>