<svg xmlns="http://www.w3.org/2000/svg" version="1.1" xmlns:xlink="http://www.w3.org/1999/xlink" xmlns:svgjs="http://svgjs.dev/svgjs" viewBox="0 0 800 800" opacity="0.24"><defs><linearGradient x1="50%" y1="0%" x2="50%" y2="100%" id="uundulate-grad"><stop stop-color="#c5c9aa" stop-opacity="1" offset="45%"></stop><stop stop-color="#D4922E" stop-opacity="1" offset="100%"></stop></linearGradient></defs><g stroke-width="2" stroke="url(#uundulate-grad)" fill="none"><path d="M706.4279609755455 347.75214276934537C715.0520980189772 421.0628415614989 687.6532284122941 505.15573754932893 637.4972811074678 559.3149034134118C587.3413338026413 613.4740692774947 532.385478775381 618.3090757781374 465.6794139123789 607.7161389169423C398.9733490493768 597.1232020557471 394.78329972767017 579.8350659618516 317.30816976505787 508.4688064796745C239.83303980244557 437.1025469974975 72.87509547688592 329.3773148592527 93.79879009184037 265.15809340249245C114.72248470679489 200.93887194573227 313.09552199868153 212.24457352710346 417.74190391683896 200.2165434872249C522.3882858349963 188.18851344734634 535.958494745098 176.6869660272995 596.1014232989952 207.42354921107483C656.2443518528924 238.1601323948501 697.8038239321137 274.44144397719174 706.4279609755455 347.75214276934537C715.0520980189772 421.0628415614989 687.6532284122941 505.15573754932893 637.4972811074678 559.3149034134118 "></path><path d="M692.4993881644234 350.12703843492545C700.7315189786083 420.1054327365266 674.5780525358651 500.3759243612735 626.7019210176218 552.0733099588072C578.8257894993785 603.7706955563408 526.3679278824482 608.385929034227 462.6939568768553 598.2744893030862C399.0199858712624 588.1630495719454 395.02039333690595 571.6607378459541 321.0668601907761 503.5383992493306C247.1133270446462 435.4160606527071 87.74438018843011 332.58742997529157 107.71699777543216 271.28726403929323C127.68961536243421 209.9870981032949 317.04569641378055 220.77890415824004 416.93542460838535 209.2976027565378C516.82515280299 197.81630135483556 529.77853403536 186.83755154479087 587.1876931095345 216.17701731112186C644.5968521837091 245.5164830774528 684.2672573502385 280.14864413332435 692.4993881644234 350.12703843492545C700.7315189786083 420.1054327365266 674.5780525358651 500.3759243612735 626.7019210176218 552.0733099588072 "></path><path d="M678.5708458708795 352.5019646180838C686.4109704558174 419.14805442913257 661.5029071770144 495.59614169079623 615.9065914453541 544.8317470217805C570.3102757136937 594.0673523527649 520.3504075070935 598.4628128078948 459.7085303589097 588.8328702068084C399.06665321072603 579.2029276057218 395.25751746372 563.486440247635 324.82558113407254 498.60802253656493C254.39364480442498 433.7296048254949 102.61369541755249 335.7975756089087 121.63523597660208 277.41646519367214C140.6567765356516 219.0353547784356 320.9959013464577 229.3132653069548 416.12897581750985 218.37869254342888C511.262050288562 207.4441197799029 523.5986038432 196.98816757986037 578.2739934376518 224.930515928747C632.9493830321038 252.8728642776336 670.7307212859414 285.8558748070351 678.5708458708795 352.5019646180838C686.4109704558174 419.14805442913257 661.5029071770144 495.59614169079623 615.9065914453541 544.8317470217805 "></path><path d="M664.6422730597574 354.876860283664C672.0903914154484 418.1906456041603 648.4277313005856 490.8163285027408 605.1112313555084 537.590153567176C561.794731410431 584.3639786316111 514.3328566141606 588.5396660639844 456.7230733233862 579.3912205929522C399.11329003261153 570.24277512192 395.4946110729559 555.3121121317375 328.58427155979075 493.677615306221C261.67393204662557 432.0431184807045 117.48298012909675 339.0076907249476 135.55344366019386 283.5456358304729C153.62390719129093 228.0835809359982 324.9460757615567 237.84759593809144 415.32249650905624 227.45975181274179C505.69891725655566 217.07190768739213 517.418643133462 207.1387530973517 569.3602632481911 233.683984028794C621.3018833629205 260.2292149602363 657.1941547040662 291.5630749631677 664.6422730597574 354.876860283664C672.0903914154484 418.1906456041603 648.4277313005856 490.8163285027408 605.1112313555084 537.590153567176 "></path><path d="M650.7137918013696 357.25175594924417C657.7699039278139 417.233236779188 635.3526469768912 486.0365153146854 594.3159628183969 530.3485601125712C553.2792786599025 574.6606049104573 508.3153972739623 578.6165193200741 453.73770784059695 569.9495709790963C399.1600184072315 561.2826226381185 395.73179623492615 547.1377840158402 332.34305353824334 488.7472080758771C268.9543108415606 430.3566321359142 132.35235639337537 342.21780584098656 149.47174289651997 289.6748064672737C166.59112939966457 237.13180709356078 328.8963417293901 246.38192656922809 414.516108753337 236.54081108205474C500.1358757772839 226.6996955948814 511.2387739764581 217.28933861484307 560.4466246114648 242.43745212884102C609.6544752464715 267.585565642839 643.6576796749255 297.2702751193003 650.7137918013696 357.25175594924417C657.7699039278139 417.233236779188 635.3526469768912 486.0365153146854 594.3159628183969 530.3485601125712 "></path><path d="M636.7852495078256 359.62665161482437C643.449355405023 416.27582795421586 622.2775016180403 481.25670212663 583.5206332461291 523.1069666579667C544.7637648742178 564.9572311893033 502.29787689860757 568.6933725761637 450.75228132265147 560.5079213652402C399.20668574669526 552.3224701543168 395.9689203617402 538.9634558999428 336.1017744815397 483.8168008455333C276.2346286013393 428.6701457911238 147.22167162249775 345.4279209570255 163.38998109768988 295.8039771040745C179.55829057288202 246.1800332511234 332.8465466620671 254.91625720036473 413.7096599624615 245.62187035136765C494.5727732628558 236.32748350237063 505.0588437842981 227.43992413233445 551.5329249395822 251.19092022888805C598.0070060948663 274.9419163254417 630.1211436106285 302.977475275433 636.7852495078256 359.62665161482437C643.449355405023 416.27582795421586 622.2775016180403 481.25670212663 583.5206332461291 523.1069666579667 "></path><path d="M622.8566766967035 362.0015625391936C629.128776364654 415.31843438803253 609.2023257416115 476.4769041973635 572.7252731562833 515.865388462151C536.248220570955 555.2538727269385 496.28032600567485 558.7702410910424 447.76682428712775 551.0662870101731C399.25332256858087 543.362332929304 396.2060139709761 530.7891430428344 339.860464907258 478.88640887397855C283.51491584353994 426.98367470512244 162.090956334042 348.6380513318535 177.30818878128167 301.93316299966426C192.52542122852128 255.22827466747503 336.7967210771661 263.45060309029043 412.9031806540079 254.70294487946967C489.0096402308495 245.9552866686489 498.87888307456 237.59052490861484 542.6191947501216 259.94440358772414C586.3595064256831 282.29828226683344 616.5845770287532 308.68469069035467 622.8566766967035 362.0015625391936C629.128776364654 415.31843438803253 609.2023257416115 476.4769041973635 572.7252731562833 515.865388462151 "></path><path d="M608.9281344031596 364.3764582047738C614.8082278418631 414.36102556306037 596.1271803827608 471.6970910093081 561.9299435840156 508.6237950075464C527.7327067852704 545.5504990057848 490.26280563032014 548.847094347132 444.7813977691824 541.6246373963172C399.2999899080445 534.4021804455023 396.4431380977901 522.6148149269371 343.61918585055435 473.95600164363464C290.7952336033187 425.29718836033214 176.96027156316438 351.8481664478925 191.22642698245153 308.06233363646504C205.49258240173873 264.27650082503766 340.74692600984326 271.98493372142707 412.0967318631324 263.78400414878257C483.4465377164215 255.58307457613813 492.6989528824 247.74111042610622 533.705495078239 268.69787168777117C574.7120372740778 289.6546329494362 603.048040964456 314.3918908464873 608.9281344031596 364.3764582047738C614.8082278418631 414.36102556306037 596.1271803827608 471.6970910093081 561.9299435840156 508.6237950075464 "></path><path d="M594.9995921096156 366.751353870354C600.4876793190722 413.4036167380881 583.0520350239101 466.9172778212527 551.1346140117479 501.38220155294175C519.2171929995857 535.8471252846308 484.24528525496544 538.9239476032217 441.7959712512368 532.1829877824612C399.34665724750823 525.4420279617005 396.680262224604 514.4404868110397 347.37790679385074 469.0255944132907C298.0755513630975 423.61070201554173 191.82958679228676 355.05828156393136 205.14466518362144 314.1915042732658C218.45974357495612 273.3247269826002 344.6971309425204 280.5192643525637 411.2902830722569 272.86506341809553C477.8834352019933 265.21086248362735 486.51902269024004 257.89169594359754 524.7917954063564 277.4513397878182C563.0645681224727 297.01098363203886 589.511504900159 320.0990910026199 594.9995921096156 366.751353870354C600.4876793190722 413.4036167380881 583.0520350239101 466.9172778212527 551.1346140117479 501.38220155294175 "></path><path d="M581.0710498160716 369.1262800535123C586.1671307962813 412.44623843069394 569.9768896650594 462.1374951507754 540.3392844394803 494.14063861591524C510.701679213901 526.1437820810551 478.22776487961073 529.0008313768894 438.8105447332914 522.7413686861833C399.39332458697197 516.4819059954771 396.91738635141803 506.2661892127205 351.13662773714714 464.09521770052504C305.35586912287624 421.92424618832956 206.69890202140914 358.2684271975485 219.06290338479135 320.3207054276447C231.42690474817357 282.372983657741 348.6473358751975 289.0536255012785 410.4838342813814 281.94615320498656C472.32033268756527 274.8386809086947 480.33909249807994 268.04231197866704 515.8780957344737 286.20483840544335C551.4170989708675 304.36736483221966 575.974968835862 325.80632167633064 581.0710498160716 369.1262800535123C586.1671307962813 412.44623843069394 569.9768896650594 462.1374951507754 540.3392844394803 494.14063861591524 "></path><path d="M567.1425532988949 371.5011757190925C571.8466280498576 411.4888296057217 556.9017900825759 457.3576819627199 529.5440006435797 486.8990451613106C502.1862112045835 516.4404083599012 472.2102902806233 519.0776846329791 435.825163991713 513.2997190723272C399.4400377028028 507.52175351167534 397.1545562545992 498.0918610968231 354.89539445681066 459.1648104701811C312.63623265902214 420.23775984353915 221.5682630268987 361.4785423135874 232.98118736232846 326.44987606444545C244.39411169775815 291.42120981530354 352.5975865842418 297.58795613241506 409.6774312668731 291.0272124742995C466.75727594950433 284.4664688161839 474.15920808228714 278.1928974961584 506.96444183895835 294.9583065054904C539.7696755956295 311.72371551482235 562.438478547932 331.51352183246325 567.1425532988949 371.5011757190925C571.8466280498576 411.4888296057217 556.9017900825759 457.3576819627199 529.5440006435797 486.8990451613106 "></path><path d="M553.2139652289836 373.8760713846727C557.5260337506995 410.53142078074944 543.826598947358 452.57786877466447 518.7486252949448 479.65745170670584C493.67065164253154 506.73703463874733 466.19272412890143 509.1545378890687 432.83969169740044 503.85806945847116C399.48665926589933 498.5616010278736 397.391634605046 489.9175329809258 358.6540696237399 454.2344032398373C319.9165046424337 418.55127349874874 236.4375324796539 364.68865742962635 246.89937978713112 332.5790467012462C257.3612270946084 300.46943597286617 356.5477457405517 306.1222867635517 408.8709366996304 300.1082717436124C461.194127658709 294.0942567236732 467.97923211375996 288.34348301364975 498.0506963907085 303.7117746055374C528.1221606676571 319.080066197425 548.9018967072677 337.22072198859587 553.2139652289836 373.8760713846727C557.5260337506995 410.53142078074944 543.826598947358 452.57786877466447 518.7486252949448 479.65745170670584 "></path><path d="M539.2854229354398 376.25099756783095C543.2054852279086 409.57404247335535 530.7514535885073 447.7980861041872 507.953295722677 472.4158887696793C485.15513785684686 497.0336914351715 460.1752037535467 499.23142166273647 429.85426517945484 494.41645036219325C399.533326605363 489.60147906165 397.62875873186 481.7432353826066 362.41279056703627 449.3040265270715C327.1968224022125 416.8648176715365 251.30684770877627 367.8988030632434 260.81761798830104 338.70824785562513C270.3283882678258 309.51769264800686 360.49795067322884 314.65664791226646 408.0644879087549 309.1893615305035C455.631025144281 303.72207514874054 461.7993019216 298.49409904871925 489.1369967188259 312.46527322316257C516.474691516052 326.4364473976059 535.3653606429707 342.9279526623066 539.2854229354398 376.25099756783095C543.2054852279086 409.57404247335535 530.7514535885073 447.7980861041872 507.953295722677 472.4158887696793 "></path><path d="M525.3568501243176 378.6258779746221C528.8849061875397 408.616618389594 517.6762777120784 443.0182576573427 497.15793563283125 465.1742800562856C476.63959355358406 487.33030245522866 454.157652860614 489.30825966003704 426.8688081439313 484.97478548954814C399.5799634272486 480.64131131905924 397.8658523410959 473.5688920079201 366.1714809927545 444.37360403793855C334.4771096444131 415.1783160679571 266.1761324203205 371.1089029204933 274.7358256718928 344.83740323363685C283.2955189234651 318.5659035467804 364.44812508832786 323.19096328461404 407.2580086003013 318.27040554102734C450.06789211227476 313.3498477974407 455.61934121186187 308.6446693074215 480.2232665293652 321.21872606442054C504.8271918468686 333.7927828214195 521.8287940610956 348.63513755965016 525.3568501243176 378.6258779746221C528.8849061875397 408.616618389594 517.6762777120784 443.0182576573427 497.15793563283125 465.1742800562856 "></path><path d="M511.4283230895627 381.0007736402023C514.5643729235379 407.65920956462173 504.6011476120167 438.23844446928723 486.36262131935257 457.932686601681C468.12409502668845 477.6269287340747 448.14014774404836 479.3851129161267 423.8833968847748 475.5331358756921C399.6266460255014 471.6811588352575 398.102991726699 465.3945638920227 369.93021719483994 439.44319680759475C341.7574426629809 413.4918297231667 281.04546290823197 374.3190180365322 288.65407913185174 350.9665738704376C296.2626953554716 327.614129704343 368.398345279794 331.7252939157507 406.4515750682149 327.3514648103403C444.5048048566357 322.9776357049299 449.43942627849094 318.7952548249129 471.3095821162717 329.97219416446757C493.1797379540525 341.1491335040222 508.2922732555876 354.3423377157828 511.4283230895627 381.0007736402023C514.5643729235379 407.65920956462173 504.6011476120167 438.23844446928723 486.36262131935257 457.932686601681 "></path><path d="M497.4997960548078 383.37568456457154C500.2438396595361 406.7018159984386 491.52601751195505 433.4586465400209 475.567307005874 450.6911084058654C459.60859649979284 467.92357027170993 442.1226426274827 469.46198143100537 420.8979856256184 466.0915015206251C399.6733286237541 462.7210216102448 398.340131112302 457.2202510349144 373.6889533969254 434.5128048360399C349.03777568154874 411.8053586371654 295.91479339614335 377.5291484113602 302.5723325918107 357.0957597660274C309.2298717874781 336.6623711206947 372.3485654712602 340.2596398056764 405.64514153612845 336.43253933844227C438.94171760099664 332.6054388712082 443.25951134512 328.94585560119333 462.3958977031782 338.72567752330366C481.5322840612364 348.50549944541393 494.7557524500795 360.04955313070445 497.4997960548078 383.37568456457154C500.2438396595361 406.7018159984386 491.52601751195505 433.4586465400209 475.567307005874 450.6911084058654 "></path><path d="M483.57125376126385 385.7505802301517C485.9232911367452 405.74440717346636 478.45087215310434 428.6788333519654 464.77197743360625 443.44951495126077C451.09308271410816 458.22019655055607 436.10512225212807 459.538834687095 417.9125591076729 456.6498519067691C399.7199959632178 453.76086912644314 398.57725523911597 449.045922919017 377.44767434022174 429.58239760569603C356.3180934413275 410.11887229237504 310.78410862526573 380.73926352739915 316.49057079298063 363.2249304028282C322.1970329606955 345.71059727825724 376.2987704039373 348.793970436813 404.83869274525296 345.5135986077552C433.3786150865686 342.23322677869743 437.07958115296 339.09644111868465 453.4821980312956 347.47914562335063C469.88481490963113 355.86185012801667 481.21921638578243 365.7567532868371 483.57125376126385 385.7505802301517C485.9232911367452 405.74440717346636 478.45087215310434 428.6788333519654 464.77197743360625 443.44951495126077 "></path><path d="M469.6427114677199 388.12549115452094C471.6027426139543 404.78701360728314 465.37572679425364 423.89903542269906 453.9766478613385 436.20793675544513C442.57756892842343 448.5168380881912 430.08760187677336 449.6157032019737 414.9271325897274 447.2082175517021C399.76666330268154 444.8007319014305 398.81437936593 440.87161006190877 381.20639528351813 424.65200563414123C363.5984112011062 408.4324012063737 325.6534238543881 383.94939390222714 330.4088089941505 369.35411629841803C335.16419413391293 354.7588386946089 380.2489753366144 357.32831632673873 404.03224395437746 354.5946731358572C427.8155125721405 351.8610299449757 430.8996509608 349.2470418949651 444.56849835941296 356.2326289821867C458.237345758026 363.2182160694084 467.68268032148535 371.4639687017588 469.6427114677199 388.12549115452094C471.6027426139543 404.78701360728314 465.37572679425364 423.89903542269906 453.9766478613385 436.20793675544513 "></path><path d="M455.7141691741759 390.50038682010114C457.2821940911635 403.82960478231087 452.3005814354029 419.11922223464364 443.1813182890708 428.9663433008405C434.06205514273876 438.81346436703734 424.0700815014187 439.69255645806334 411.94170607178194 437.76656793784605C399.8133306421452 435.84057941762876 399.051503492744 432.69728194601134 384.9651162268145 419.7215984037974C370.878728960885 406.74591486158334 340.5227390835105 387.15950901826614 344.3270471953204 375.4832869352188C348.1313553071303 363.8070648521715 384.19918026929156 365.8626469578753 403.22579516350197 363.67573240517015C422.2524100577124 361.48881785246493 424.71972076864 359.3976274124565 435.6547986875304 364.98609708223375C446.5898766064208 370.5745667520111 454.1461442571883 377.1711688578914 455.7141691741759 390.50038682010114C457.2821940911635 403.82960478231087 452.3005814354029 419.11922223464364 443.1813182890708 428.9663433008405 "></path><path d="M441.7856268806319 392.87528248568134C442.9616455683726 402.87219595733865 439.22543607655217 414.3394090465882 432.3859887168031 421.72474984623585C425.5465413570541 429.1100906458835 418.052561126064 429.76940971415297 408.95627955383645 428.32491832399C399.8599979816089 426.88042693382704 399.288627619558 424.522953830114 388.72383717011087 414.7911911734535C378.15904672066375 405.059428516793 355.39205431263287 390.36962413430507 358.2452853964903 381.6124575720196C361.09851648034777 372.8552910097341 388.14938520196864 374.39697758901195 402.4193463726265 372.75679167448305C416.68930754328426 371.1166057599542 418.53979057648 369.5482129299478 426.7410990156478 373.7395651822808C434.94240745481557 377.9309174346138 440.6096081928912 382.87836901402403 441.7856268806319 392.87528248568134C442.9616455683726 402.87219595733865 439.22543607655217 414.3394090465882 432.3859887168031 421.72474984623585 "></path><path d="M427.8570845870879 395.25019341005054C428.6410970455817 401.91480239115543 426.1502907177014 409.5596111173218 421.59065914453544 414.4831716504202C417.0310275713694 419.40673218351867 412.03504075070936 419.84627822903167 405.97085303589097 418.883283968923C399.9066653210726 417.9202897088144 399.525751746372 416.3486409730057 392.48255811340726 409.86079920189866C385.4393644804425 403.3729574307917 370.26136954175524 393.57975450913307 372.16352359766023 387.7416434676094C374.06567765356516 381.90353242608575 392.0995901346458 382.93132347893766 401.612897581751 381.8378662025851C411.1262050288562 380.7444089262325 412.35986038432 379.69881370622824 417.8273993437652 382.4930485411169C423.29493830321036 385.2872833760056 427.07307212859416 388.5855844289457 427.8570845870879 395.25019341005054C428.6410970455817 401.91480239115543 426.1502907177014 409.5596111173218 421.59065914453544 414.4831716504202 "></path><path d="M413.92854229354396 397.62508907563074C414.3205485227909 400.9573935661832 413.0751453588507 404.77979792926635 410.7953295722677 407.2415781958156C408.5155137856847 409.7033584623648 406.01752037535465 409.9231314851213 402.9854265179455 409.441634355067C399.9533326605363 408.96013722501266 399.762875873186 408.1743128571083 396.2412790567036 404.9303919715548C392.71968224022123 401.6864710860013 385.1306847708776 396.789869625172 386.0817617988301 393.87081410441016C387.0328388267826 390.95175858364837 396.04979506732286 391.4656541100743 400.8064487908755 390.918925471898C405.5631025144281 390.3721968337217 406.17993019216 389.84939922371956 408.91369967188257 391.2465166411639C411.6474691516052 392.64363405860826 413.5365360642971 394.2927845850783 413.92854229354396 397.62508907563074C414.3205485227909 400.9573935661832 413.0751453588507 404.77979792926635 410.7953295722677 407.2415781958156 "></path></g></svg>